<svg width="48" height="44" viewBox="0 0 48 44" fill="none" xmlns="http://www.w3.org/2000/svg">
<path d="M14.6419 1.84964L10.067 10.5861C9.77156 11.1502 9.96609 11.8554 10.5045 12.1725L17.668 16.3922C18.2138 16.7137 18.9078 16.516 19.2182 15.9504L27.9743 0.000671387H17.64C16.3891 0.000671387 15.2385 0.7102 14.6419 1.84964Z" fill="#29A361"/>
<path d="M27.9741 0L19.2183 15.95C18.9073 16.5154 18.2138 16.7136 17.6682 16.3923L15.7985 15.2913C16.2543 15.3674 16.7286 15.1503 16.97 14.7099L25.0469 0H27.9741Z" fill="#248F55"/>
<path d="M37.5549 8.45925L34.3994 1.94903C33.8205 0.7546 32.6409 0.000671387 31.3512 0.000671387H22.2279L29.2328 12.3166C29.2098 12.3273 29.1867 12.338 29.1638 12.3487C28.7231 12.5543 28.7411 13.2093 29.1923 13.3888L35.2409 15.7961C35.5212 15.9076 35.8357 15.7625 35.9433 15.4721L38.275 9.17956C38.4474 8.71409 37.9947 8.26494 37.5549 8.45925Z" fill="#34CB79"/>
<path d="M38.2752 9.17899L35.9428 15.4715C35.8356 15.7627 35.5207 15.9079 35.2407 15.7958L33.4105 15.0671L35.5923 9.17899C35.7163 8.84506 35.5182 8.51988 35.234 8.43458C34.9633 8.35326 34.7322 8.16954 34.6057 7.90858L31.7165 1.94875C31.138 0.754706 29.9588 0 28.6685 0H31.3515C32.6408 0 33.82 0.754706 34.3995 1.94875L37.5547 8.45945C37.9952 8.26524 38.4471 8.71361 38.2752 9.17899Z" fill="#2FB86E"/>
<path d="M31.4594 33.5592C31.3745 33.1978 30.9245 33.043 30.6498 33.3275L25.9223 38.2268C25.7336 38.4223 25.7336 38.7391 25.9223 38.9345L30.6681 43.8526C30.9408 44.1352 31.3862 43.9844 31.4758 43.6291H38.4549C39.7397 43.6291 40.9156 42.8809 41.4969 41.6934L45.4792 33.5591H31.4594V33.5592Z" fill="#29A361"/>
<path d="M37.3509 33.5593L39.6138 37.1078C40.1254 37.9101 40.1821 38.9352 39.7622 39.7927L38.8314 41.6935C38.251 42.8805 37.0746 43.6292 35.7902 43.6292H38.4548C39.7393 43.6292 40.9157 42.8805 41.4971 41.6935L45.479 33.5594H37.3509V33.5593Z" fill="#248F55"/>
<path d="M21.9353 42.6939V34.0356C21.9353 33.3848 21.4262 32.8572 20.7982 32.8572H2.06775L6.888 42.0281C7.48547 43.1648 8.63456 43.8722 9.88359 43.8722H20.7982C21.4261 43.8723 21.9353 43.3448 21.9353 42.6939Z" fill="#29A361"/>
<path d="M10.0114 32.858L5.85169 40.0574L2.06775 32.858H10.0114Z" fill="#248F55"/>
<path d="M21.9351 34.0358V42.6944C21.9351 43.345 21.4261 43.8724 20.7983 43.8724H17.815C18.4428 43.8724 18.9518 43.345 18.9518 42.6944V34.0358C18.9518 33.3852 18.4428 32.8578 17.815 32.8578H20.7983C21.4261 32.8577 21.9351 33.3852 21.9351 34.0358Z" fill="#248F55"/>
<path d="M12.7847 25.2066L11.9436 18.6467C11.902 18.3226 11.6148 18.0949 11.3021 18.1379L4.94784 19.0129C4.46934 19.0788 4.29102 19.682 4.61877 20.0176L0.608522 26.0077C-0.126759 27.106 -0.201384 28.54 0.415585 29.7138L4.77955 38.0167L11.8654 25.7507C11.8679 25.7526 11.8703 25.7546 11.8729 25.7566C12.2773 26.0747 12.8515 25.7282 12.7847 25.2066Z" fill="#34CB79"/>
<path d="M11.8725 25.7566C11.8705 25.7546 11.8677 25.7526 11.8657 25.7506L4.77964 38.0163L3.3223 35.2439L9.0898 25.2586L9.24973 24.9816C9.3372 24.8302 9.50811 24.7648 9.67526 24.7984C9.67611 24.7986 9.67695 24.7987 9.6778 24.7989C10.0334 24.8646 10.3982 24.5576 10.3435 24.1362L9.60467 18.3712L11.3015 18.138C11.6145 18.095 11.9023 18.3232 11.9438 18.6464L12.785 25.2072C12.8518 25.7285 12.2771 26.0748 11.8725 25.7566Z" fill="#2FB86E"/>
<path d="M47.396 25.5569L41.9104 17.3196C41.574 16.8143 40.9194 16.6615 40.4063 16.9683L33.2575 21.2435C32.6901 21.5827 32.516 22.3475 32.8773 22.9139L42.955 38.7151L47.6307 29.1643C48.1966 28.0082 48.1066 26.6239 47.396 25.5569Z" fill="#34CB79"/>
<path d="M47.6308 29.1645L42.9545 38.7148L41.386 36.2546L44.8571 29.1644C45.4231 28.0083 45.3333 26.6242 44.6225 25.5572L39.3309 17.6123L40.4068 16.9687C40.9196 16.6614 41.5745 16.8145 41.9106 17.32L47.3963 25.5573C48.107 26.6242 48.1968 28.0085 47.6308 29.1645Z" fill="#2FB86E"/>
</svg>
